Coordinates
version=1
nRows=11
nColumns=42
inDegrees=yes

Units are S.I. units (second, meters, Newtons, ...)
If the header above contains a line with 'inDegrees', this indicates whether rotational values are in degrees (yes) or radians (no).

endheader
time	pelvis_tilt	pelvis_list	pelvis_rotation	pelvis_tx	pelvis_ty	pelvis_tz	hip_flexion_r	hip_adduction_r	hip_rotation_r	knee_angle_r	knee_adduction_r	knee_angle_r_beta	ankle_angle_r	subtalar_angle_r	mtp_angle_r	hip_flexion_l	hip_adduction_l	hip_rotation_l	knee_angle_l	knee_adduction_l	knee_angle_l_beta	ankle_angle_l	subtalar_angle_l	mtp_angle_l	lumbar_extension	lumbar_bending	lumbar_rotation	arm_flex_r	arm_add_r	arm_rot_r	elbow_flex_r	pro_sup_r	wrist_flex_r	wrist_dev_r	arm_flex_l	arm_add_l	arm_rot_l	elbow_flex_l	pro_sup_l	wrist_flex_l	wrist_dev_l
      0.38000000	      6.91658754	      0.04295138	      0.37327667	     -1.39509308	      0.92261359	      0.24320899	     21.04600381	      0.18013876	     -9.04720928	     17.81439359	      1.47074918	      0.31091982	      7.52030312	      3.78475692	     -7.95290235	    -29.07525700	     -2.97485887	    -14.10453144	     19.90766725	      1.69156346	      0.34745434	     14.26749792	     26.23634206	     -7.95290235	    -16.09163055	      3.42391936	     -6.82136674	    -10.87829172	    -11.35535726	      9.79765786	     34.40351585	     90.00000001	      0.00000000	      0.00000000	      3.68436878	    -17.81359050	     -4.89477356	     54.91586238	     90.00000001	      0.00000000	      0.00000000
      0.39000000	      7.36144413	     -0.46614811	      0.13342058	     -1.37806258	      0.92483813	      0.24511105	     20.38714253	      0.87785382	     -8.76261296	     19.66756088	      1.42854727	      0.34326369	      7.67025549	      3.38073972	     -7.94717105	    -28.83352117	     -3.71114910	    -14.14728820	     22.93251126	      1.35834773	      0.40024783	     12.01668975	     25.03325610	     -7.94717105	    -16.52481723	      3.95175615	     -6.49203489	    -10.49220471	    -11.53240813	      9.81235421	     34.28535428	     90.00000001	      0.00000000	      0.00000000	      3.04309248	    -17.43734983	     -5.02637659	     54.54644934	     90.00000001	      0.00000000	      0.00000000
      0.40000000	      7.75116523	     -0.99272185	     -0.16799823	     -1.36120849	      0.92746456	      0.24707040	     19.57408387	      1.60534472	     -8.34191217	     21.12256007	      1.46116812	      0.36865822	      7.90040744	      3.05606952	     -7.93961774	    -28.29776387	     -4.43611192	    -14.19057276	     26.25355235	      0.98232597	      0.45821093	      9.76420964	     23.39823433	     -7.93961774	    -16.92740574	      4.47399928	     -6.08683489	    -10.06885426	    -11.73212297	      9.83151140	     34.18999297	     90.00000001	      0.00000000	      0.00000000	      2.36317302	    -17.03621791	     -5.08976105	     54.11481966	     90.00000001	      0.00000000	      0.00000000
      0.41000000	      8.07568688	     -1.46030554	     -0.49025095	     -1.34472974	      0.93042666	      0.24909864	     18.62225261	      2.27414153	     -7.71588167	     22.15943480	      1.59437407	      0.38675510	      8.27006447	      2.75711942	     -7.93099346	    -27.42443172	     -5.12633660	    -14.22297817	     29.87218118	      0.58600045	      0.52136792	      7.70008852	     21.48202348	     -7.93099346	    -17.30198501	      4.90162516	     -5.64717954	     -9.61441418	    -11.91546470	      9.84441870	     34.13347651	     90.00000001	      0.00000000	      0.00000000	      1.71644306	    -16.65636613	     -5.06868467	     53.58214806	     90.00000001	      0.00000000	      0.00000000
      0.42000000	      8.32004703	     -1.85720966	     -0.80300960	     -1.32862966	      0.93363216	      0.25102264	     17.56048134	      2.83538420	     -7.03605053	     22.79362230	      1.82535752	      0.39782376	      8.83456273	      2.56074027	     -7.92357431	    -26.20298945	     -5.73745151	    -14.32593453	     33.71013787	      0.02300320	      0.58835290	      5.90997157	     19.48273874	     -7.92357431	    -17.63810328	      5.24372121	     -5.21673879	     -9.11847675	    -12.10635972	      9.83150101	     34.13824080	     90.00000001	      0.00000000	      0.00000000	      1.08792861	    -16.28258942	     -4.93994335	     52.95545258	     90.00000001	      0.00000000	      0.00000000
      0.43000000	      8.46231123	     -2.14583490	     -1.11758305	     -1.31290306	      0.93696137	      0.25291134	     16.46595675	      3.24823119	     -6.41321331	     23.13050465	      2.09309477	      0.40370346	      9.52702651	      2.58618863	     -7.91469133	    -24.68699487	     -6.24667425	    -14.49045222	     37.57686355	     -0.64063966	      0.65583999	      4.57789323	     17.52396728	     -7.91469133	    -17.87996800	      5.44819221	     -4.78962291	     -8.62043599	    -12.28422115	      9.80415443	     34.20205119	     90.00000001	      0.00000000	      0.00000000	      0.49614197	    -15.94957963	     -4.73194811	     52.24615630	     90.00000001	      0.00000000	      0.00000000
      0.44000000	      8.40459231	     -2.47343867	     -1.44159248	     -1.29755580	      0.94023538	      0.25487787	     15.43504005	      3.75139320	     -5.79740809	     23.10387163	      2.28099768	      0.40323863	     10.20148930	      2.68424596	     -7.90486470	    -22.78158065	     -6.85075013	    -14.75858054	     41.47582259	     -1.32603009	      0.72388966	      3.53773629	     15.37360053	     -7.90486470	    -17.93881151	      5.67875001	     -4.27396188	     -8.14495003	    -12.46276857	      9.78805382	     34.29843713	     90.00000001	      0.00000000	      0.00000000	     -0.07094040	    -15.58996889	     -4.39700234	     51.47315193	     90.00000001	      0.00000000	      0.00000000
      0.45000000	      8.18158068	     -2.79207110	     -1.84352333	     -1.28253299	      0.94342760	      0.25704118	     14.50750408	      4.29257443	     -5.19057066	     22.88234046	      2.40440469	      0.39937218	     10.63137503	      2.55768368	     -7.88881585	    -20.64252823	     -7.47833094	    -14.95260286	     45.20377764	     -1.83505982	      0.78895475	      2.95163897	     13.07898944	     -7.88881585	    -17.82965225	      5.85464015	     -3.68283880	     -7.66798258	    -12.64181479	      9.76256780	     34.45271572	     90.00000001	      0.00000000	      0.00000000	     -0.62737577	    -15.28459692	     -3.95701505	     50.62224702	     90.00000001	      0.00000000	      0.00000000
      0.46000000	      8.19382859	     -2.95483321	     -2.11736448	     -1.26770102	      0.94712810	      0.25893769	     13.10720441	      4.56923495	     -4.73660842	     22.22989143	      2.59741500	      0.38798480	     11.33174465	      2.85347033	     -7.87342614	    -18.69394098	     -7.88698491	    -15.23528703	     48.49163904	     -2.64538658	      0.84633876	      2.69510774	     11.07644802	     -7.87342614	    -17.97153062	      5.87042216	     -3.18629966	     -7.19865638	    -12.81311522	      9.76065368	     34.71114881	     90.00000001	      0.00000000	      0.00000000	     -1.10127425	    -15.03148448	     -3.43058545	     49.75908295	     90.00000001	      0.00000000	      0.00000000
      0.47000000	      8.36658277	     -2.93742325	     -2.31948453	     -1.25285224	      0.95117827	      0.26048205	     11.40815450	      4.54821540	     -4.47650258	     21.33431655	      2.83982004	      0.37235407	     12.11548086	      3.48599590	     -7.86649938	    -16.92402642	     -8.02813391	    -15.67354157	     51.24332974	     -3.67208393	      0.89436482	      2.93292636	      9.57206118	     -7.86649938	    -18.24724752	      5.70855851	     -2.80907925	     -6.72182754	    -12.99182756	      9.76597481	     35.01925834	     90.00000001	      0.00000000	      0.00000000	     -1.57904534	    -14.78373317	     -2.91972414	     48.88187239	     90.00000001	      0.00000000	      0.00000000
      0.48000000	      8.35271030	     -2.95761184	     -2.60571602	     -1.23831171	      0.95496808	      0.26234584	      9.90519791	      4.68705931	     -4.19644451	     20.35504159	      2.84890776	      0.35526250	     12.72023365	      4.18472053	     -7.85778212	    -14.90036508	     -8.27192920	    -16.23769265	     53.75247965	     -4.58068505	      0.93815775	      3.27546239	      7.97805965	     -7.85778212	    -18.32892444	      5.53778539	     -2.28183881	     -6.30073099	    -13.18134937	      9.82841790	     35.36724446	     90.00000001	      0.00000000	      0.00000000	     -2.03293042	    -14.59505385	     -2.20764986	     47.98423655	     90.00000001	      0.00000000	      0.00000000
